<?xml version="1.0" standalone="no"?>
<!DOCTYPE svg PUBLIC "-//W3C//DTD SVG 20010904//EN"
 "http://www.w3.org/TR/2001/REC-SVG-20010904/DTD/svg10.dtd">
<svg version="1.0" xmlns="http://www.w3.org/2000/svg"
 width="512.000000pt" height="512.000000pt" viewBox="0 0 512.000000 512.000000"
 preserveAspectRatio="xMidYMid meet">

<g transform="translate(0.000000,512.000000) scale(0.100000,-0.100000)"
fill="#000000" stroke="none">
<path d="M2480 4950 c-337 -26 -654 -165 -918 -402 -456 -409 -588 -963 -391
-1638 76 -258 220 -575 381 -838 21 -35 38 -65 36 -67 -2 -1 -46 -10 -98 -20
-52 -9 -165 -34 -250 -55 -714 -178 -1105 -484 -1077 -845 17 -224 186 -411
520 -575 328 -162 770 -270 1337 -327 246 -24 834 -24 1080 0 1055 106 1737
411 1845 822 108 417 -366 788 -1235 964 -85 18 -165 34 -178 37 l-24 5 23 37
c195 326 343 641 418 894 93 316 111 561 60 825 -85 443 -380 832 -785 1036
-157 80 -327 132 -462 142 -158 12 -189 12 -282 5z m375 -344 c266 -69 515
-248 671 -482 345 -518 229 -1164 -372 -2074 -150 -228 -382 -534 -573 -758
l-20 -23 -44 48 c-332 359 -687 870 -869 1249 -348 728 -326 1300 66 1690 215
215 470 340 766 378 90 11 276 -3 375 -28z m-1004 -2983 c165 -228 379 -481
576 -684 l132 -136 74 76 c164 169 342 382 548 656 l132 177 51 -7 c307 -40
655 -133 896 -239 223 -98 380 -240 380 -344 0 -52 -49 -130 -116 -186 -429
-354 -1575 -538 -2614 -420 -696 79 -1293 302 -1404 526 -46 91 -30 146 69
243 166 163 554 311 1030 394 94 16 173 30 176 30 4 1 35 -38 70 -86z"/>
<path d="M2500 4134 c-191 -31 -329 -106 -437 -237 -85 -102 -143 -265 -143
-396 1 -291 205 -554 486 -625 89 -23 232 -21 324 5 112 31 185 74 276 164 94
93 154 200 180 325 61 289 -94 586 -369 710 -93 41 -241 67 -317 54z m173
-340 c64 -21 148 -99 178 -166 35 -80 34 -193 -4 -270 -30 -62 -83 -115 -149
-150 -36 -19 -58 -23 -138 -23 -80 0 -102 4 -138 23 -66 35 -119 88 -149 150
-38 76 -40 191 -5 267 72 156 233 224 405 169z"/>
</g>
</svg>
