<?xml version="1.0" standalone="no"?>
<!DOCTYPE svg PUBLIC "-//W3C//DTD SVG 20010904//EN"
 "http://www.w3.org/TR/2001/REC-SVG-20010904/DTD/svg10.dtd">
<svg version="1.0" xmlns="http://www.w3.org/2000/svg"
 width="512.000000pt" height="512.000000pt" viewBox="0 0 512.000000 512.000000"
 preserveAspectRatio="xMidYMid meet">

<g transform="translate(0.000000,512.000000) scale(0.100000,-0.100000)"
fill="#000000" stroke="none">
<path d="M1424 5105 c-321 -70 -478 -416 -327 -720 19 -39 220 -245 909 -935
l884 -885 -876 -875 c-621 -621 -885 -892 -911 -933 -49 -81 -73 -166 -73
-260 0 -384 411 -618 745 -425 34 20 386 364 1080 1056 567 565 1050 1042
1074 1061 176 138 215 458 80 660 -22 34 -62 78 -87 98 -26 20 -510 499 -1077
1063 -1007 1003 -1032 1027 -1102 1059 -112 50 -206 61 -319 36z"/>
</g>
</svg>
