<?xml version="1.0" standalone="no"?>
<!DOCTYPE svg PUBLIC "-//W3C//DTD SVG 20010904//EN"
 "http://www.w3.org/TR/2001/REC-SVG-20010904/DTD/svg10.dtd">
<svg version="1.0" xmlns="http://www.w3.org/2000/svg"
 width="324.000000pt" height="330.000000pt" viewBox="0 0 324.000000 330.000000"
 preserveAspectRatio="xMidYMid meet">

<g transform="translate(0.000000,330.000000) scale(0.100000,-0.100000)"
fill="#000000" stroke="none">
<path d="M1533 2987 c-51 -14 -65 -27 -31 -27 14 0 41 -11 61 -24 19 -13 43
-27 53 -30 11 -3 33 -20 49 -36 17 -17 38 -38 48 -48 23 -23 22 -27 -16 -50
l-33 -19 -13 29 c-11 24 -18 28 -35 23 -30 -9 -94 -10 -103 -2 -13 13 -25 7
-14 -7 17 -20 72 -26 104 -9 26 13 28 12 39 -14 7 -15 13 -29 14 -31 1 -2 20
7 43 19 56 29 61 23 108 -125 21 -68 13 -209 -18 -301 -29 -86 -108 -219 -157
-263 -59 -53 1 -18 66 39 71 62 64 55 117 114 25 27 45 53 45 57 0 5 8 17 18
27 43 48 68 90 75 126 3 17 13 50 22 75 9 25 20 63 24 85 5 31 11 41 29 43 17
3 22 -2 22 -17 0 -14 6 -21 20 -21 16 0 20 -7 20 -30 0 -23 5 -30 19 -30 23 0
56 -61 59 -110 2 -19 9 -45 18 -57 17 -26 9 -73 -12 -73 -7 0 -28 -9 -46 -20
-18 -11 -41 -20 -50 -20 -10 0 -18 -4 -18 -9 0 -6 -25 -34 -55 -64 -43 -42
-55 -60 -54 -83 1 -27 1 -28 8 -5 10 36 102 137 136 151 62 25 100 49 115 73
13 23 13 28 -4 46 -11 12 -19 37 -20 63 -2 47 -39 114 -69 124 -12 4 -17 14
-15 32 2 20 -2 27 -17 30 -11 2 -24 10 -28 18 -4 8 -19 14 -32 14 -20 0 -25 5
-25 26 0 14 -5 45 -11 70 -8 33 -9 52 -1 69 9 18 8 25 -4 29 -8 3 -14 19 -14
36 0 16 -4 30 -10 30 -5 0 -10 -7 -10 -15 0 -19 -14 -19 -29 -1 -7 8 -23 17
-36 20 -14 4 -25 10 -25 15 0 5 -26 23 -57 40 -51 28 -65 31 -142 30 -47 -1
-105 -6 -128 -12z m444 -163 c-3 -3 -12 -4 -19 -1 -8 3 -5 6 6 6 11 1 17 -2
13 -5z"/>
<path d="M1203 2793 c-7 -2 -13 -9 -13 -15 0 -6 6 -5 15 2 9 7 17 11 19 9 1
-2 9 -14 18 -26 13 -21 16 -21 34 -7 18 15 18 15 -3 9 -16 -4 -25 0 -33 15
-11 20 -16 22 -37 13z"/>
<path d="M1323 2790 c-34 -14 -28 -19 16 -13 31 4 41 1 53 -15 13 -20 39 -27
86 -24 22 2 32 35 13 46 -5 4 -7 -3 -4 -14 5 -18 0 -20 -35 -20 -24 0 -44 6
-49 14 -7 11 -46 37 -55 35 -2 0 -13 -4 -25 -9z"/>
<path d="M1140 2735 c-18 -19 -32 -36 -29 -38 2 -2 19 14 38 35 42 48 36 50
-9 3z"/>
<path d="M1065 2670 c-3 -6 1 -7 9 -4 18 7 21 14 7 14 -6 0 -13 -4 -16 -10z"/>
<path d="M985 2600 c-10 -11 -15 -20 -12 -20 4 0 16 9 27 20 11 11 16 20 12
20 -5 0 -17 -9 -27 -20z"/>
<path d="M985 2570 c-18 -8 -17 -9 8 -9 16 -1 26 3 22 9 -3 6 -7 10 -8 9 -1 0
-11 -4 -22 -9z"/>
<path d="M853 2563 c-7 -2 -13 -9 -13 -15 0 -6 6 -5 15 2 10 8 30 10 58 7 28
-4 36 -3 22 3 -22 9 -63 11 -82 3z"/>
<path d="M787 2517 c5 -27 6 -27 24 -11 11 9 19 20 19 23 0 3 -5 0 -12 -7 -9
-9 -14 -7 -24 6 -10 14 -11 13 -7 -11z"/>
<path d="M666 2501 c-3 -4 6 -6 19 -3 14 2 25 6 25 8 0 8 -39 4 -44 -5z"/>
<path d="M633 2456 c7 -15 14 -20 18 -14 4 6 1 17 -6 25 -20 20 -24 16 -12
-11z"/>
<path d="M620 2400 c-13 -8 -12 -10 3 -10 9 0 17 5 17 10 0 12 -1 12 -20 0z"/>
<path d="M650 2355 c11 -13 10 -18 -6 -30 -18 -13 -18 -14 4 -8 12 3 22 9 22
13 0 18 -13 40 -22 40 -6 0 -5 -7 2 -15z"/>
<path d="M412 2245 c-23 -33 -45 -71 -48 -85 -3 -14 -19 -56 -35 -93 -79 -182
-78 -378 2 -526 16 -30 29 -60 29 -67 0 -8 29 -46 65 -86 160 -178 406 -284
688 -295 121 -5 129 -7 144 -29 8 -13 20 -24 25 -24 5 0 2 7 -6 16 -9 8 -16
22 -16 30 0 8 -6 14 -14 14 -8 0 -17 7 -20 16 -10 25 -7 29 7 10 12 -16 13
-16 13 3 0 11 -3 19 -6 19 -27 -2 -32 4 -27 40 2 25 -1 46 -11 58 -10 13 -13
14 -9 3 3 -9 -1 -16 -9 -16 -9 0 -12 7 -9 17 3 10 -1 20 -9 23 -12 5 -15 48
-16 271 0 147 2 266 4 266 3 0 11 -7 19 -15 13 -12 15 -12 20 4 4 16 -5 18
-117 18 -260 1 -442 73 -553 219 -43 55 -53 87 -61 189 l-7 80 -43 -60z m728
-475 c0 -5 -4 -10 -10 -10 -5 0 -10 5 -10 10 0 6 5 10 10 10 6 0 10 -4 10 -10z
m0 -250 c0 -39 -13 -54 -23 -27 -7 18 3 67 14 67 5 0 9 -18 9 -40z m0 -124 c0
-14 -4 -28 -10 -31 -5 -3 -10 -3 -10 2 0 4 -3 18 -6 31 -5 16 -2 22 10 22 10
0 16 -9 16 -24z m-4 -148 c13 -38 10 -48 -13 -48 -17 0 -17 40 0 41 6 0 3 4
-7 8 -24 9 -30 40 -8 37 8 -2 21 -19 28 -38z m62 -65 c2 -7 -1 -13 -8 -13 -6
0 -8 4 -5 10 3 5 0 7 -8 4 -8 -3 -18 -1 -21 4 -3 5 4 9 16 8 12 0 23 -7 26
-13z m-68 -18 c0 -8 -2 -15 -4 -15 -2 0 -6 7 -10 15 -3 8 -1 15 4 15 6 0 10
-7 10 -15z m34 9 c9 -3 13 -10 10 -15 -3 -5 -11 -7 -17 -3 -7 3 -3 -2 7 -10
11 -9 25 -16 30 -16 6 0 5 4 -3 9 -8 5 -9 11 -3 15 6 3 14 1 17 -4 9 -15 -24
-50 -44 -49 -12 1 -12 2 2 6 18 5 18 6 -1 19 -12 8 -20 23 -19 34 1 11 2 20 3
20 1 0 9 -3 18 -6z m-25 -63 c0 -10 -2 -11 -6 -3 -2 6 -13 12 -23 12 -10 0
-21 4 -24 8 -3 5 8 6 25 4 19 -3 29 -10 28 -21z"/>
<path d="M641 2288 c-1 -11 8 -18 26 -20 17 -2 33 -13 42 -30 13 -23 13 -30 1
-55 -8 -15 -23 -38 -34 -50 -18 -21 -18 -23 -2 -23 9 0 14 4 11 10 -3 5 3 15
14 21 10 7 17 19 14 26 -3 7 0 13 6 13 18 0 12 46 -10 74 -11 14 -29 26 -39
26 -10 0 -21 6 -23 13 -3 7 -6 6 -6 -5z"/>
<path d="M700 2106 c0 -2 9 -6 20 -9 11 -3 18 -1 14 4 -5 9 -34 13 -34 5z"/>
<path d="M741 2064 c0 -11 3 -14 6 -6 3 7 2 16 -1 19 -3 4 -6 -2 -5 -13z"/>
<path d="M1923 2063 c-18 -7 -15 -32 7 -73 21 -39 28 -18 8 26 -10 22 -10 28
0 32 6 2 12 8 12 13 0 10 -8 10 -27 2z"/>
<path d="M741 1995 c1 -19 18 -51 18 -35 0 8 -4 22 -9 30 -5 8 -9 11 -9 5z"/>
<path d="M1951 1913 c-1 -13 13 -52 29 -87 l31 -65 -24 -38 c-16 -25 -27 -61
-31 -103 -8 -75 7 -63 19 14 3 27 18 67 31 88 l25 39 -29 62 c-15 34 -33 73
-39 87 -11 24 -12 24 -12 3z"/>
<path d="M1918 1543 c-37 -6 -40 -43 -3 -43 14 0 29 -8 36 -21 11 -21 11 -21
32 -2 12 11 34 26 48 35 24 15 26 15 38 -4 9 -15 21 -19 53 -16 37 3 42 0 51
-26 7 -22 6 -35 -7 -56 -22 -38 -20 -50 4 -21 20 23 25 57 14 99 -6 19 -13 22
-55 22 -37 0 -52 5 -60 19 -12 18 -14 17 -52 -9 -34 -23 -43 -25 -73 -16 -29
9 -31 12 -14 18 11 4 20 12 20 18 0 5 -1 9 -2 9 -2 -1 -15 -4 -30 -6z"/>
<path d="M2108 1364 c-10 -9 15 -74 28 -74 7 0 20 -3 30 -7 12 -4 15 -3 10 5
-4 7 -16 12 -26 12 -23 0 -36 36 -20 55 10 12 9 15 -2 15 -8 0 -17 -3 -20 -6z"/>
<path d="M1170 1290 c0 -5 5 -10 10 -10 6 0 10 5 10 10 0 6 -4 10 -10 10 -5 0
-10 -4 -10 -10z"/>
<path d="M1293 1283 c-3 -10 -8 -22 -11 -27 -3 -5 0 -6 6 -2 7 4 12 2 12 -4 0
-6 5 -8 11 -5 6 4 8 14 5 22 -4 9 -2 11 7 6 6 -4 20 -6 30 -5 11 2 17 -3 18
-15 0 -10 2 -26 4 -35 2 -12 -3 -18 -16 -18 -10 0 -19 5 -19 12 0 6 -3 8 -7 5
-3 -4 -12 -2 -20 4 -10 9 -13 8 -13 -2 0 -24 14 -34 53 -37 l37 -4 0 51 c0 50
-1 51 -29 51 -17 0 -33 5 -36 10 -10 15 -25 12 -32 -7z"/>
<path d="M2180 1248 c0 -9 5 -20 10 -23 16 -10 1 -25 -25 -25 -18 0 -28 -9
-39 -32 -7 -18 -23 -43 -35 -55 -12 -13 -17 -23 -12 -23 13 0 61 70 61 87 0 7
11 13 24 13 34 0 46 20 30 50 -10 18 -14 20 -14 8z"/>
<path d="M1428 1103 c7 -3 16 -2 19 1 4 3 -2 6 -13 5 -11 0 -14 -3 -6 -6z"/>
<path d="M1318 1093 c12 -2 32 -2 45 0 12 2 2 4 -23 4 -25 0 -35 -2 -22 -4z"/>
<path d="M2063 1073 c3 -5 0 -35 -7 -66 -14 -59 -11 -74 10 -57 9 8 19 2 37
-22 14 -18 29 -30 32 -26 9 9 -56 79 -67 72 -9 -6 -6 28 8 78 3 9 -1 20 -7 24
-7 4 -9 3 -6 -3z"/>
<path d="M1325 1024 c38 -21 82 -27 91 -13 11 19 -19 29 -32 11 -11 -15 -14
-15 -37 1 -15 9 -32 17 -39 17 -7 0 1 -7 17 -16z"/>
<path d="M1370 925 c-8 -16 -22 -25 -37 -25 -19 0 -23 -5 -23 -31 0 -16 4 -28
9 -25 5 3 12 -1 15 -10 4 -10 13 -13 27 -9 14 5 19 3 15 -4 -4 -5 11 -23 32
-38 34 -25 38 -31 31 -58 -5 -16 -15 -33 -24 -37 -21 -12 -19 -40 5 -68 11
-13 20 -27 20 -32 0 -4 9 -8 20 -8 23 0 23 0 10 -34 -11 -31 1 -41 50 -41 27
0 35 -5 38 -20 5 -23 20 -35 42 -34 10 0 8 3 -5 8 -11 4 -22 18 -25 31 -6 25
-62 49 -68 30 -9 -24 -20 4 -15 35 4 27 2 35 -9 35 -39 0 -77 81 -44 93 8 3
17 20 21 39 7 29 4 36 -27 63 -19 16 -37 38 -41 47 -4 11 -12 15 -21 12 -16
-6 -46 17 -46 35 0 6 8 11 19 11 17 0 58 47 48 56 -2 2 -10 -7 -17 -21z"/>
<path d="M2137 844 c2 -21 -3 -36 -17 -49 -11 -10 -20 -31 -20 -47 0 -23 4
-28 25 -28 15 0 28 -7 32 -17 3 -10 15 -25 26 -34 18 -15 19 -20 7 -48 -7 -19
-20 -31 -31 -31 -23 0 -23 -8 -4 -34 13 -17 12 -21 -3 -32 -15 -12 -15 -12 6
-7 14 3 21 11 18 19 -3 8 -9 21 -12 29 -4 10 0 15 10 15 9 0 16 6 16 14 0 7 7
19 15 26 8 7 15 18 15 24 0 18 -74 93 -87 89 -24 -9 -23 18 2 62 15 25 22 45
17 45 -6 0 -13 8 -15 18 -2 9 -3 3 0 -14z"/>
<path d="M1716 465 c-11 -8 -15 -15 -9 -15 6 0 16 7 23 15 16 19 11 19 -14 0z"/>
<path d="M1779 466 c13 -16 51 -41 51 -33 0 2 -15 14 -32 27 -21 15 -28 17
-19 6z"/>
<path d="M2089 453 c-13 -16 -12 -17 4 -4 16 13 21 21 13 21 -2 0 -10 -8 -17
-17z"/>
<path d="M1640 435 c0 -7 30 -13 34 -7 3 4 -4 9 -15 9 -10 1 -19 0 -19 -2z"/>
<path d="M1887 429 c-10 -6 -25 -8 -33 -5 -9 3 -12 1 -9 -4 9 -14 28 -12 51 5
22 17 17 19 -9 4z"/>
<path d="M2033 385 c-3 -9 -3 -18 -1 -21 3 -3 8 4 11 16 6 23 -1 27 -10 5z"/>
<path d="M1921 313 c-1 -40 11 -42 47 -7 l27 27 -32 -22 -32 -21 -4 27 c-4 26
-4 26 -6 -4z"/>
</g>
</svg>
