<?xml version="1.0" encoding="utf-8"?><svg viewBox="0 0 682.667 682.667" xmlns="http://www.w3.org/2000/svg" xmlns:xlink="http://www.w3.org/1999/xlink"><style>:root>svg{display:none}:root>svg:target{display:block}</style><svg version="1.0" viewBox="0 0 512 512" id="address" xmlns="http://www.w3.org/2000/svg"><path d="M248 17c-33.7 2.6-65.4 16.5-91.8 40.2-45.6 40.9-58.8 96.3-39.1 163.8 7.6 25.8 22 57.5 38.1 83.8 2.1 3.5 3.8 6.5 3.6 6.7-.2.1-4.6 1-9.8 2-5.2.9-16.5 3.4-25 5.5-71.4 17.8-110.5 48.4-107.7 84.5 1.7 22.4 18.6 41.1 52 57.5 32.8 16.2 77 27 133.7 32.7 24.6 2.4 83.4 2.4 108 0 105.5-10.6 173.7-41.1 184.5-82.2 10.8-41.7-36.6-78.8-123.5-96.4-8.5-1.8-16.5-3.4-17.8-3.7l-2.4-.5 2.3-3.7c19.5-32.6 34.3-64.1 41.8-89.4 9.3-31.6 11.1-56.1 6-82.5-8.5-44.3-38-83.2-78.5-103.6-15.7-8-32.7-13.2-46.2-14.2-15.8-1.2-18.9-1.2-28.2-.5zm37.5 34.4c26.6 6.9 51.5 24.8 67.1 48.2 34.5 51.8 22.9 116.4-37.2 207.4-15 22.8-38.2 53.4-57.3 75.8l-2 2.3-4.4-4.8c-33.2-35.9-68.7-87-86.9-124.9-34.8-72.8-32.6-130 6.6-169 21.5-21.5 47-34 76.6-37.8 9-1.1 27.6.3 37.5 2.8zM185.1 349.7c16.5 22.8 37.9 48.1 57.6 68.4l13.2 13.6 7.4-7.6c16.4-16.9 34.2-38.2 54.8-65.6l13.2-17.7 5.1.7c30.7 4 65.5 13.3 89.6 23.9 22.3 9.8 38 24 38 34.4 0 5.2-4.9 13-11.6 18.6-42.9 35.4-157.5 53.8-261.4 42-69.6-7.9-129.3-30.2-140.4-52.6-4.6-9.1-3-14.6 6.9-24.3 16.6-16.3 55.4-31.1 103-39.4 9.4-1.6 17.3-3 17.6-3 .4-.1 3.5 3.8 7 8.6z"/><path d="M250 98.6c-19.1 3.1-32.9 10.6-43.7 23.7-8.5 10.2-14.3 26.5-14.3 39.6.1 29.1 20.5 55.4 48.6 62.5 8.9 2.3 23.2 2.1 32.4-.5 11.2-3.1 18.5-7.4 27.6-16.4 9.4-9.3 15.4-20 18-32.5 6.1-28.9-9.4-58.6-36.9-71-9.3-4.1-24.1-6.7-31.7-5.4zm17.3 34c6.4 2.1 14.8 9.9 17.8 16.6 3.5 8 3.4 19.3-.4 27-3 6.2-8.3 11.5-14.9 15-3.6 1.9-5.8 2.3-13.8 2.3s-10.2-.4-13.8-2.3c-6.6-3.5-11.9-8.8-14.9-15-3.8-7.6-4-19.1-.5-26.7 7.2-15.6 23.3-22.4 40.5-16.9z"/></svg><svg version="1.0" viewBox="0 0 512 512" id="back" xmlns="http://www.w3.org/2000/svg"><path d="M349.8 1c-2.6.5-8 2.3-12 4.1-7.2 3.2-9.2 5.1-110.3 105.9-56.6 56.4-105.1 104.3-107.7 106.3-18.3 14.5-22.5 46-8.7 66.6 2.3 3.4 6 7.6 8.2 9.4 2.3 1.8 50.5 49.4 107.2 105.9 69.4 69.2 104.6 103.6 108 105.6 19.5 11.3 44.6 8.3 60-7.1 16.3-16.4 19.2-41.7 7.2-61.4-2.6-4.1-29-31.2-91.1-93.3L223 255.5l88.4-88.5c68.9-69 89-89.6 90.9-93.5 4-8.1 5.8-15.4 5.8-24 0-31-27.3-53.7-58.3-48.5z"/></svg><svg version="1.0" viewBox="0 0 512 512" id="burgermenu" xmlns="http://www.w3.org/2000/svg"><path d="M24.5 64.9c-9 2.2-17.3 9-21.5 17.6-3.4 6.9-3.5 19.8-.2 26.5 3.4 7.1 7.5 11.3 14.4 15.1l6.3 3.4h465l5.1-2.7c7.6-4 10.7-7 14.5-14 3.1-5.8 3.4-7 3.4-14.8 0-7.8-.3-9-3.4-14.8-3.7-6.9-7.9-10.9-15.1-14.4l-4.5-2.3-230.5-.2c-126.8 0-231.8.2-233.5.6zm0 160c-9 2.2-17.3 9-21.5 17.6-3.4 6.9-3.5 19.8-.2 26.5 3.4 7.1 7.5 11.3 14.4 15.1l6.3 3.4h465l5.1-2.7c7.6-4 10.7-7 14.5-14 3.1-5.8 3.4-7 3.4-14.8 0-7.8-.3-9-3.4-14.8-3.7-6.9-7.9-10.9-15.1-14.4l-4.5-2.3-230.5-.2c-126.8 0-231.8.2-233.5.6zm0 160c-9 2.2-17.3 9-21.5 17.6-3.4 6.9-3.5 19.8-.2 26.5 3.4 7.1 7.5 11.3 14.4 15.1l6.3 3.4h465l5.1-2.7c7.6-4 10.7-7 14.5-14 3.1-5.8 3.4-7 3.4-14.8 0-7.8-.3-9-3.4-14.8-3.7-6.9-7.9-10.9-15.1-14.4l-4.5-2.3-230.5-.2c-126.8 0-231.8.2-233.5.6z"/></svg><svg version="1.0" viewBox="0 0 512 512" id="close" xmlns="http://www.w3.org/2000/svg"><path d="M39.5 4.4C22.5 8.5 7.9 23.2 4 40c-2.8 12-.7 26.1 5.4 36.4 1.4 2.3 41.9 43.5 90 91.6l87.6 87.5-88.8 89c-95.6 95.8-93 92.9-96.7 107-2.9 11.5-1.3 23.4 4.7 34.7 9.4 17.7 31.5 26.3 54.9 21.4 14-3 10.3.3 105.4-94.7 48.4-48.3 88.5-87.9 89-87.9s40.6 39.5 89 87.9c81.6 81.5 88.5 88.1 94.5 90.9 20.7 9.6 45.7 5.7 60-9.4 13.5-14.2 16.6-36 7.8-54.3-2.9-6.1-9.9-13.3-92.7-95.8l-89.6-89.1 87.1-87.4c54.3-54.4 88.1-89 89.7-91.8 4.4-7.8 6-15.2 5.5-25.9-.6-11.5-3-18.5-9.3-26.9-12.3-16.3-34.6-23.2-54-16.6-11.1 3.7-16.1 8.4-102.9 95.3l-85 85-87.5-87.2C74 6.1 76.3 8.1 62.5 4.5c-6.9-1.8-16-1.8-23-.1z"/></svg><svg version="1.0" viewBox="0 0 512 512" id="email" xmlns="http://www.w3.org/2000/svg"><path d="M34.5 77.4c-8.4 2.1-14.7 5.7-21.1 12.1C6.9 96 2.9 103.1 1.1 111.8c-1.6 7.6-1.6 281 0 288.4 3.7 17.1 17.7 31.1 34.7 34.7 7.5 1.6 432.9 1.6 440.4 0 17-3.6 31.1-17.8 34.7-34.7 1.6-7.6 1.6-281 0-288.4-3.7-17.2-17.6-31.1-34.7-34.7-8.1-1.7-434.9-1.4-441.7.3zm329 125.7c-53.4 53.3-98.2 97.7-99.7 98.5-3.5 1.8-12.1 1.8-15.6 0-1.5-.8-46.3-45.2-99.7-98.5l-97-97.1h409l-97 97.1zM94.7 320.7L30 385.5v-259l64.7 64.8 64.8 64.7-64.8 64.7zM482 256.2v129.3l-64.7-64.7-64.8-64.8 64.5-64.5c35.5-35.5 64.6-64.5 64.7-64.5.2 0 .3 58.2.3 129.2zm-278.1 45.1c21.5 21.3 24.3 23.7 31.5 27.3l8 3.9h12.5c12.5 0 12.7 0 20.5-3.8 7.3-3.5 9.6-5.5 31.8-27.4l23.9-23.7 64.2 64.2 64.2 64.2h-409l64-64c35.2-35.2 64.2-64 64.4-64 .3 0 11.1 10.5 24 23.3z"/></svg><svg version="1.0" viewBox="0 0 512 512" id="next" xmlns="http://www.w3.org/2000/svg"><path d="M142.4 1.5c-32.1 7-47.8 41.6-32.7 72 1.9 3.9 22 24.5 90.9 93.5l88.4 88.5-87.6 87.5c-62.1 62.1-88.5 89.2-91.1 93.3-4.9 8.1-7.3 16.6-7.3 26 0 38.4 41.1 61.8 74.5 42.5 3.4-2 38.6-36.4 108-105.6 56.7-56.5 105-104.2 107.4-106.1 17.6-13.8 21.5-45.8 8-66-2.2-3.4-6.2-7.8-8.7-9.8-2.6-2-51-49.9-107.7-106.3C183.8 10.7 181.3 8.3 174.3 5.1c-11.2-5-20.6-6.1-31.9-3.6z"/></svg><svg version="1.0" viewBox="0 0 512 512" id="phone" xmlns="http://www.w3.org/2000/svg"><path d="M91.6 1.5c-8.1 2.1-16.4 6.7-24.9 14-9.4 8.1-43.1 42.4-48.6 49.5C-4.2 93.5-4.6 137.8 17 195c26.3 69.9 75.6 140.7 138 198.2 86 79.3 201.2 130.6 260.5 116.2 8.8-2.1 23.4-8.9 30.1-14 6.8-5.1 52-51.5 56.2-57.6 7.8-11.3 10.8-26.4 7.8-39.2-3.4-14.3-4.5-15.6-48-59.2-43.9-43.9-45.3-45-59.8-48-11.5-2.4-23.2-.3-34.5 6.2-2.6 1.6-15 12.9-27.5 25.3l-22.7 22.4-7.3-3.8c-17.9-9.3-31.1-18.2-50.8-34.4-20.2-16.6-48.4-45.7-64-66.1-11.3-14.8-27.9-42.1-28-45.8 0-.7 7.8-8.9 17.3-18.2 20-19.5 27.9-28.6 32.4-37.2 5.6-10.9 6.7-24.7 2.8-36.1-3.9-11.6-7.7-16-45.9-54.3C135.8 11.6 130 6.6 119.2 2.9 111.7.2 99.3-.4 91.6 1.5zm23.2 28.1c2.8 1.6 18.8 16.7 40.3 38.3 38.9 39 40.4 40.8 40.3 51.1 0 9.1-2.4 12.3-28.5 38.4-13.2 13.1-24.7 25.2-25.5 26.9-1.2 2.1-1.5 5-1.2 9.9.3 6 1.1 8.3 7.2 20.4 13.8 27.4 32 51.5 62.1 82.3 29.9 30.6 59.7 53.4 90.4 69.2 10.9 5.6 13 6.4 18 6.3 3.4 0 7-.7 9.1-1.8 1.9-1 14.3-12.6 27.5-25.7 17-16.9 25.3-24.4 28.5-25.8 6-2.7 13.8-2.7 19.3 0 6 3 76.7 73.6 79.8 79.8 1.7 3.3 2.4 6.3 2.4 10.6 0 10.3-2.1 13.1-30.5 41.6-28.1 28.2-30.7 30.1-45.7 33.5-14.5 3.2-38.8.6-63.4-6.7-37.5-11.1-87.9-37.7-129.4-68.3-79.9-58.8-148.5-148.7-177-231.8C24.9 138.3 23.4 110 33.8 89c3.2-6.7 6.2-10.1 27-31.2C73.6 44.8 85.9 33 88 31.5c9-6.2 18.2-6.9 26.8-1.9z"/></svg><svg version="1.0" viewBox="0 0 324 330" id="spti" xmlns="http://www.w3.org/2000/svg"><path d="M153.3 31.3c-5.1 1.4-6.5 2.7-3.1 2.7 1.4 0 4.1 1.1 6.1 2.4 1.9 1.3 4.3 2.7 5.3 3 1.1.3 3.3 2 4.9 3.6l4.8 4.8c2.3 2.3 2.2 2.7-1.6 5l-3.3 1.9-1.3-2.9c-1.1-2.4-1.8-2.8-3.5-2.3-3 .9-9.4 1-10.3.2-1.3-1.3-2.5-.7-1.4.7 1.7 2 7.2 2.6 10.4.9 2.6-1.3 2.8-1.2 3.9 1.4.7 1.5 1.3 2.9 1.4 3.1.1.2 2-.7 4.3-1.9 5.6-2.9 6.1-2.3 10.8 12.5 2.1 6.8 1.3 20.9-1.8 30.1-2.9 8.6-10.8 21.9-15.7 26.3-5.9 5.3.1 1.8 6.6-3.9 7.1-6.2 6.4-5.5 11.7-11.4 2.5-2.7 4.5-5.3 4.5-5.7 0-.5.8-1.7 1.8-2.7 4.3-4.8 6.8-9 7.5-12.6.3-1.7 1.3-5 2.2-7.5.9-2.5 2-6.3 2.4-8.5.5-3.1 1.1-4.1 2.9-4.3 1.7-.3 2.2.2 2.2 1.7 0 1.4.6 2.1 2 2.1 1.6 0 2 .7 2 3s.5 3 1.9 3c2.3 0 5.6 6.1 5.9 11 .2 1.9.9 4.5 1.8 5.7 1.7 2.6.9 7.3-1.2 7.3-.7 0-2.8.9-4.6 2-1.8 1.1-4.1 2-5 2-1 0-1.8.4-1.8.9 0 .6-2.5 3.4-5.5 6.4-4.3 4.2-5.5 6-5.4 8.3.1 2.7.1 2.8.8.5 1-3.6 10.2-13.7 13.6-15.1 6.2-2.5 10-4.9 11.5-7.3 1.3-2.3 1.3-2.8-.4-4.6-1.1-1.2-1.9-3.7-2-6.3-.2-4.7-3.9-11.4-6.9-12.4-1.2-.4-1.7-1.4-1.5-3.2.2-2-.2-2.7-1.7-3-1.1-.2-2.4-1-2.8-1.8-.4-.8-1.9-1.4-3.2-1.4-2 0-2.5-.5-2.5-2.6 0-1.4-.5-4.5-1.1-7-.8-3.3-.9-5.2-.1-6.9.9-1.8.8-2.5-.4-2.9-.8-.3-1.4-1.9-1.4-3.6 0-1.6-.4-3-1-3-.5 0-1 .7-1 1.5 0 1.9-1.4 1.9-2.9.1-.7-.8-2.3-1.7-3.6-2-1.4-.4-2.5-1-2.5-1.5s-2.6-2.3-5.7-4c-5.1-2.8-6.5-3.1-14.2-3-4.7.1-10.5.6-12.8 1.2zm44.4 16.3c-.3.3-1.2.4-1.9.1-.8-.3-.5-.6.6-.6 1.1-.1 1.7.2 1.3.5zm-77.4 3.1c-.7.2-1.3.9-1.3 1.5s.6.5 1.5-.2 1.7-1.1 1.9-.9c.1.2.9 1.4 1.8 2.6 1.3 2.1 1.6 2.1 3.4.7 1.8-1.5 1.8-1.5-.3-.9-1.6.4-2.5 0-3.3-1.5-1.1-2-1.6-2.2-3.7-1.3z"/><path d="M132.3 51c-3.4 1.4-2.8 1.9 1.6 1.3 3.1-.4 4.1-.1 5.3 1.5 1.3 2 3.9 2.7 8.6 2.4 2.2-.2 3.2-3.5 1.3-4.6-.5-.4-.7.3-.4 1.4.5 1.8 0 2-3.5 2-2.4 0-4.4-.6-4.9-1.4-.7-1.1-4.6-3.7-5.5-3.5-.2 0-1.3.4-2.5.9zM114 56.5c-1.8 1.9-3.2 3.6-2.9 3.8.2.2 1.9-1.4 3.8-3.5 4.2-4.8 3.6-5-.9-.3zm-7.5 6.5c-.3.6.1.7.9.4 1.8-.7 2.1-1.4.7-1.4-.6 0-1.3.4-1.6 1zm-8 7c-1 1.1-1.5 2-1.2 2 .4 0 1.6-.9 2.7-2s1.6-2 1.2-2c-.5 0-1.7.9-2.7 2zm0 3c-1.8.8-1.7.9.8.9 1.6.1 2.6-.3 2.2-.9-.3-.6-.7-1-.8-.9-.1 0-1.1.4-2.2.9zm-13.2.7c-.7.2-1.3.9-1.3 1.5s.6.5 1.5-.2c1-.8 3-1 5.8-.7 2.8.4 3.6.3 2.2-.3-2.2-.9-6.3-1.1-8.2-.3zm-6.6 4.6c.5 2.7.6 2.7 2.4 1.1 1.1-.9 1.9-2 1.9-2.3 0-.3-.5 0-1.2.7-.9.9-1.4.7-2.4-.6-1-1.4-1.1-1.3-.7 1.1zm-12.1 1.6c-.3.4.6.6 1.9.3 1.4-.2 2.5-.6 2.5-.8 0-.8-3.9-.4-4.4.5zm-3.3 4.5c.7 1.5 1.4 2 1.8 1.4.4-.6.1-1.7-.6-2.5-2-2-2.4-1.6-1.2 1.1zM62 90c-1.3.8-1.2 1 .3 1 .9 0 1.7-.5 1.7-1 0-1.2-.1-1.2-2 0zm3 4.5c1.1 1.3 1 1.8-.6 3-1.8 1.3-1.8 1.4.4.8C66 98 67 97.4 67 97c0-1.8-1.3-4-2.2-4-.6 0-.5.7.2 1.5zm-23.8 11c-2.3 3.3-4.5 7.1-4.8 8.5-.3 1.4-1.9 5.6-3.5 9.3-7.9 18.2-7.8 37.8.2 52.6 1.6 3 2.9 6 2.9 6.7 0 .8 2.9 4.6 6.5 8.6 16 17.8 40.6 28.4 68.8 29.5 12.1.5 12.9.7 14.4 2.9.8 1.3 2 2.4 2.5 2.4s.2-.7-.6-1.6c-.9-.8-1.6-2.2-1.6-3 0-.8-.6-1.4-1.4-1.4-.8 0-1.7-.7-2-1.6-1-2.5-.7-2.9.7-1 1.2 1.6 1.3 1.6 1.3-.3 0-1.1-.3-1.9-.6-1.9-2.7.2-3.2-.4-2.7-4 .2-2.5-.1-4.6-1.1-5.8-1-1.3-1.3-1.4-.9-.3.3.9-.1 1.6-.9 1.6-.9 0-1.2-.7-.9-1.7.3-1-.1-2-.9-2.3-1.2-.5-1.5-4.8-1.6-27.1 0-14.7.2-26.6.4-26.6.3 0 1.1.7 1.9 1.5 1.3 1.2 1.5 1.2 2-.4.4-1.6-.5-1.8-11.7-1.8-26-.1-44.2-7.3-55.3-21.9-4.3-5.5-5.3-8.7-6.1-18.9l-.7-8-4.3 6zM114 153c0 .5-.4 1-1 1-.5 0-1-.5-1-1 0-.6.5-1 1-1 .6 0 1 .4 1 1zm0 25c0 3.9-1.3 5.4-2.3 2.7-.7-1.8.3-6.7 1.4-6.7.5 0 .9 1.8.9 4zm0 12.4c0 1.4-.4 2.8-1 3.1-.5.3-1 .3-1-.2 0-.4-.3-1.8-.6-3.1-.5-1.6-.2-2.2 1-2.2 1 0 1.6.9 1.6 2.4zm-.4 14.8c1.3 3.8 1 4.8-1.3 4.8-1.7 0-1.7-4 0-4.1.6 0 .3-.4-.7-.8-2.4-.9-3-4-.8-3.7.8.2 2.1 1.9 2.8 3.8zm6.2 6.5c.2.7-.1 1.3-.8 1.3-.6 0-.8-.4-.5-1 .3-.5 0-.7-.8-.4-.8.3-1.8.1-2.1-.4-.3-.5.4-.9 1.6-.8 1.2 0 2.3.7 2.6 1.3zm-6.8 1.8c0 .8-.2 1.5-.4 1.5s-.6-.7-1-1.5c-.3-.8-.1-1.5.4-1.5.6 0 1 .7 1 1.5zm3.4-.9c.9.3 1.3 1 1 1.5-.3.5-1.1.7-1.7.3-.7-.3-.3.2.7 1 1.1.9 2.5 1.6 3 1.6.6 0 .5-.4-.3-.9s-.9-1.1-.3-1.5c.6-.3 1.4-.1 1.7.4.9 1.5-2.4 5-4.4 4.9-1.2-.1-1.2-.2.2-.6 1.8-.5 1.8-.6-.1-1.9-1.2-.8-2-2.3-1.9-3.4.1-1.1.2-2 .3-2 .1 0 .9.3 1.8.6zm-2.5 6.3c0 1-.2 1.1-.6.3-.2-.6-1.3-1.2-2.3-1.2-1 0-2.1-.4-2.4-.8-.3-.5.8-.6 2.5-.4 1.9.3 2.9 1 2.8 2.1z"/><path d="M64.1 101.2c-.1 1.1.8 1.8 2.6 2 1.7.2 3.3 1.3 4.2 3 1.3 2.3 1.3 3 .1 5.5-.8 1.5-2.3 3.8-3.4 5-1.8 2.1-1.8 2.3-.2 2.3.9 0 1.4-.4 1.1-1-.3-.5.3-1.5 1.4-2.1 1-.7 1.7-1.9 1.4-2.6-.3-.7 0-1.3.6-1.3 1.8 0 1.2-4.6-1-7.4-1.1-1.4-2.9-2.6-3.9-2.6s-2.1-.6-2.3-1.3c-.3-.7-.6-.6-.6.5zm5.9 18.2c0 .2.9.6 2 .9 1.1.3 1.8.1 1.4-.4-.5-.9-3.4-1.3-3.4-.5zm4.1 4.2c0 1.1.3 1.4.6.6.3-.7.2-1.6-.1-1.9-.3-.4-.6.2-.5 1.3zm118.2.1c-1.8.7-1.5 3.2.7 7.3 2.1 3.9 2.8 1.8.8-2.6-1-2.2-1-2.8 0-3.2.6-.2 1.2-.8 1.2-1.3 0-1-.8-1-2.7-.2zm-118.2 6.8c.1 1.9 1.8 5.1 1.8 3.5 0-.8-.4-2.2-.9-3-.5-.8-.9-1.1-.9-.5zm121 8.2c-.1 1.3 1.3 5.2 2.9 8.7l3.1 6.5-2.4 3.8c-1.6 2.5-2.7 6.1-3.1 10.3-.8 7.5.7 6.3 1.9-1.4.3-2.7 1.8-6.7 3.1-8.8l2.5-3.9-2.9-6.2c-1.5-3.4-3.3-7.3-3.9-8.7-1.1-2.4-1.2-2.4-1.2-.3zm-3.3 37c-3.7.6-4 4.3-.3 4.3 1.4 0 2.9.8 3.6 2.1 1.1 2.1 1.1 2.1 3.2.2 1.2-1.1 3.4-2.6 4.8-3.5 2.4-1.5 2.6-1.5 3.8.4.9 1.5 2.1 1.9 5.3 1.6 3.7-.3 4.2 0 5.1 2.6.7 2.2.6 3.5-.7 5.6-2.2 3.8-2 5 .4 2.1 2-2.3 2.5-5.7 1.4-9.9-.6-1.9-1.3-2.2-5.5-2.2-3.7 0-5.2-.5-6-1.9-1.2-1.8-1.4-1.7-5.2.9-3.4 2.3-4.3 2.5-7.3 1.6-2.9-.9-3.1-1.2-1.4-1.8 1.1-.4 2-1.2 2-1.8 0-.5-.1-.9-.2-.9-.2.1-1.5.4-3 .6zm19 17.9c-1 .9 1.5 7.4 2.8 7.4.7 0 2 .3 3 .7 1.2.4 1.5.3 1-.5-.4-.7-1.6-1.2-2.6-1.2-2.3 0-3.6-3.6-2-5.5 1-1.2.9-1.5-.2-1.5-.8 0-1.7.3-2 .6zM117 201c0 .5.5 1 1 1 .6 0 1-.5 1-1 0-.6-.4-1-1-1-.5 0-1 .4-1 1zm12.3.7c-.3 1-.8 2.2-1.1 2.7-.3.5 0 .6.6.2.7-.4 1.2-.2 1.2.4 0 .6.5.8 1.1.5.6-.4.8-1.4.5-2.2-.4-.9-.2-1.1.7-.6.6.4 2 .6 3 .5 1.1-.2 1.7.3 1.8 1.5 0 1 .2 2.6.4 3.5.2 1.2-.3 1.8-1.6 1.8-1 0-1.9-.5-1.9-1.2 0-.6-.3-.8-.7-.5-.3.4-1.2.2-2-.4-1-.9-1.3-.8-1.3.2 0 2.4 1.4 3.4 5.3 3.7l3.7.4v-5.1c0-5-.1-5.1-2.9-5.1-1.7 0-3.3-.5-3.6-1-1-1.5-2.5-1.2-3.2.7zm88.7 3.5c0 .9.5 2 1 2.3 1.6 1 .1 2.5-2.5 2.5-1.8 0-2.8.9-3.9 3.2-.7 1.8-2.3 4.3-3.5 5.5-1.2 1.3-1.7 2.3-1.2 2.3 1.3 0 6.1-7 6.1-8.7 0-.7 1.1-1.3 2.4-1.3 3.4 0 4.6-2 3-5-1-1.8-1.4-2-1.4-.8zm-75.2 14.5c.7.3 1.6.2 1.9-.1.4-.3-.2-.6-1.3-.5-1.1 0-1.4.3-.6.6zm-11 1c1.2.2 3.2.2 4.5 0 1.2-.2.2-.4-2.3-.4s-3.5.2-2.2.4zm74.5 2c.3.5 0 3.5-.7 6.6-1.4 5.9-1.1 7.4 1 5.7.9-.8 1.9-.2 3.7 2.2 1.4 1.8 2.9 3 3.2 2.6.9-.9-5.6-7.9-6.7-7.2-.9.6-.6-2.8.8-7.8.3-.9-.1-2-.7-2.4-.7-.4-.9-.3-.6.3zm-73.8 4.9c3.8 2.1 8.2 2.7 9.1 1.3 1.1-1.9-1.9-2.9-3.2-1.1-1.1 1.5-1.4 1.5-3.7-.1-1.5-.9-3.2-1.7-3.9-1.7-.7 0 .1.7 1.7 1.6zm4.5 9.9c-.8 1.6-2.2 2.5-3.7 2.5-1.9 0-2.3.5-2.3 3.1 0 1.6.4 2.8.9 2.5.5-.3 1.2.1 1.5 1 .4 1 1.3 1.3 2.7.9 1.4-.5 1.9-.3 1.5.4-.4.5 1.1 2.3 3.2 3.8 3.4 2.5 3.8 3.1 3.1 5.8-.5 1.6-1.5 3.3-2.4 3.7-2.1 1.2-1.9 4 .5 6.8 1.1 1.3 2 2.7 2 3.2 0 .4.9.8 2 .8 2.3 0 2.3 0 1 3.4-1.1 3.1.1 4.1 5 4.1 2.7 0 3.5.5 3.8 2 .5 2.3 2 3.5 4.2 3.4 1 0 .8-.3-.5-.8-1.1-.4-2.2-1.8-2.5-3.1-.6-2.5-6.2-4.9-6.8-3-.9 2.4-2-.4-1.5-3.5.4-2.7.2-3.5-.9-3.5-3.9 0-7.7-8.1-4.4-9.3.8-.3 1.7-2 2.1-3.9.7-2.9.4-3.6-2.7-6.3-1.9-1.6-3.7-3.8-4.1-4.7-.4-1.1-1.2-1.5-2.1-1.2-1.6.6-4.6-1.7-4.6-3.5 0-.6.8-1.1 1.9-1.1 1.7 0 5.8-4.7 4.8-5.6-.2-.2-1 .7-1.7 2.1zm76.7 8.1c.2 2.1-.3 3.6-1.7 4.9-1.1 1-2 3.1-2 4.7 0 2.3.4 2.8 2.5 2.8 1.5 0 2.8.7 3.2 1.7.3 1 1.5 2.5 2.6 3.4 1.8 1.5 1.9 2 .7 4.8-.7 1.9-2 3.1-3.1 3.1-2.3 0-2.3.8-.4 3.4 1.3 1.7 1.2 2.1-.3 3.2-1.5 1.2-1.5 1.2.6.7 1.4-.3 2.1-1.1 1.8-1.9-.3-.8-.9-2.1-1.2-2.9-.4-1 0-1.5 1-1.5.9 0 1.6-.6 1.6-1.4 0-.7.7-1.9 1.5-2.6.8-.7 1.5-1.8 1.5-2.4 0-1.8-7.4-9.3-8.7-8.9-2.4.9-2.3-1.8.2-6.2 1.5-2.5 2.2-4.5 1.7-4.5-.6 0-1.3-.8-1.5-1.8-.2-.9-.3-.3 0 1.4zm-42.1 37.9c-1.1.8-1.5 1.5-.9 1.5s1.6-.7 2.3-1.5c1.6-1.9 1.1-1.9-1.4 0zm6.3-.1c1.3 1.6 5.1 4.1 5.1 3.3 0-.2-1.5-1.4-3.2-2.7-2.1-1.5-2.8-1.7-1.9-.6zm31 1.3c-1.3 1.6-1.2 1.7.4.4 1.6-1.3 2.1-2.1 1.3-2.1-.2 0-1 .8-1.7 1.7zm-44.9 1.8c0 .7 3 1.3 3.4.7.3-.4-.4-.9-1.5-.9-1-.1-1.9 0-1.9.2zm24.7.6c-1 .6-2.5.8-3.3.5-.9-.3-1.2-.1-.9.4.9 1.4 2.8 1.2 5.1-.5 2.2-1.7 1.7-1.9-.9-.4zm14.6 4.4c-.3.9-.3 1.8-.1 2.1.3.3.8-.4 1.1-1.6.6-2.3-.1-2.7-1-.5zm-11.2 7.2c-.1 4 1.1 4.2 4.7.7l2.7-2.7-3.2 2.2-3.2 2.1-.4-2.7c-.4-2.6-.4-2.6-.6.4z"/></svg></svg>